<svg xmlns="http://www.w3.org/2000/svg" width="479.407" height="397" viewBox="0 0 479.407 397">
  <g id="undraw_my_password_d6kg" transform="translate(-343 -342)">
    <path id="Path_125" data-name="Path 125" d="M549.013,279.45c-2.632,22.547-8.1,40.65-15.606,55.087-9.988,19.236-27.072,26.987-42.333,35.1a96.522,96.522,0,0,1-13.713,5.963c-27.771,9.638-58.852,7.081-83.267,1.992a328.238,328.238,0,0,0-51.981-6.572q-7.476-.337-14.967-.335c-7.7.01-146.354,2.642-180.112-65.7-8.335-16.859-14.048-37.454-16.1-62.558-5.808-70.972,26.113-117.585,67.287-148.052C276.11,36.735,382.873,39.152,459.613,98.3,510.73,137.705,558.591,197.337,549.013,279.45Z" transform="translate(217.869 289.491)" fill="#f2f2f2"/>
    <path id="Path_126" data-name="Path 126" d="M269.815,337.308c0,56.414-33.537,76.112-74.907,76.112S120,393.722,120,337.308s74.907-128.181,74.907-128.181S269.815,280.894,269.815,337.308Z" transform="translate(223 211.085)" fill="#f46036"/>
    <path id="Path_127" data-name="Path 127" d="M114.355,352.281l.767-47.214,31.928-58.409-31.807,51,.345-21.229,22-42.259-21.913,36.641h0l.62-38.181,23.563-33.643L116.4,226.629l.388-70.011L114.348,249.3l.2-3.823L90.592,208.808l23.572,44.009-2.232,42.642-.066-1.132L84.248,255.738l27.533,42.587-.279,5.333-.05.08.023.438-5.663,108.187h7.566l.908-55.88L141.752,314Z" transform="translate(300.824 263.594)" fill="#3f3d56"/>
    <path id="Path_128" data-name="Path 128" d="M929.815,344.308c0,56.414-33.537,76.112-74.907,76.112S780,400.722,780,344.308s74.907-128.181,74.907-128.181S929.815,287.894,929.815,344.308Z" transform="translate(-107.407 207.581)" fill="#f46036"/>
    <path id="Path_129" data-name="Path 129" d="M774.355,359.281l.767-47.214,31.928-58.409-31.807,51,.345-21.229,22-42.259-21.913,36.641h0l.62-38.181,23.563-33.643L776.4,233.629l.388-70.011L774.348,256.3l.2-3.823-23.956-36.669,23.572,44.009-2.232,42.642-.066-1.132-27.617-38.589,27.534,42.587-.279,5.333-.05.08.023.438-5.663,108.187h7.566l.908-55.88L801.752,321Z" transform="translate(-29.583 260.09)" fill="#3f3d56"/>
    <path id="Path_130" data-name="Path 130" d="M603.8,236.373c0,61.679-36.667,83.215-81.9,83.215S440,298.052,440,236.373,521.9,96.228,521.9,96.228,603.8,174.694,603.8,236.373Z" transform="translate(62.803 267.604)" fill="#f46036"/>
    <path id="Path_131" data-name="Path 131" d="M445.028,257.644l.838-51.62,34.907-63.861L446,197.926l.377-23.21,24.058-46.2-23.958,40.061h0l.678-41.745,25.762-36.784L447.26,120.264l.423-76.545L445.02,145.051l.219-4.18-26.192-40.091L444.819,148.9l-2.44,46.622-.072-1.238-30.2-42.19,30.1,46.562-.306,5.83-.054.088.025.478-6.192,118.284h8.273l.992-61.1,30.03-46.448Z" transform="translate(136.69 320.113)" fill="#3f3d56"/>
    <path id="Path_132" data-name="Path 132" d="M563.521,695.438c0,13.239-86.75,54.433-193.761,54.433S176,708.676,176,695.438s79.758-42.947,186.769-42.947S563.521,682.2,563.521,695.438Z" transform="translate(194.965 -10.87)" fill="#3f3d56"/>
    <path id="Path_133" data-name="Path 133" d="M563.521,695.438c0,13.239-86.75,54.433-193.761,54.433S176,708.676,176,695.438s79.758-42.947,186.769-42.947S563.521,682.2,563.521,695.438Z" transform="translate(194.965 -10.87)" opacity="0.1"/>
    <path id="Path_134" data-name="Path 134" d="M563.521,695.438c0,13.239-86.75,23.97-193.761,23.97S176,708.676,176,695.438s79.758-42.947,186.769-42.947S563.521,682.2,563.521,695.438Z" transform="translate(194.965 -10.87)" fill="#3f3d56"/>
    <path id="Path_135" data-name="Path 135" d="M694.429,605.571c0,18.991,11.914,34.358,26.637,34.358" transform="translate(-64.569 12.618)" fill="#3f3d56"/>
    <path id="Path_136" data-name="Path 136" d="M747.769,639.542c0-19.2,13.3-34.744,29.726-34.744" transform="translate(-91.272 13.005)" fill="#f46036"/>
    <path id="Path_137" data-name="Path 137" d="M713.755,609.018c0,18.039,7.6,32.637,16.986,32.637" transform="translate(-74.244 10.893)" fill="#f46036"/>
    <path id="Path_138" data-name="Path 138" d="M747.769,629.867c0-24.539,15.367-44.4,34.358-44.4" transform="translate(-91.272 22.68)" fill="#3f3d56"/>
    <path id="Path_139" data-name="Path 139" d="M736.548,672.812s3.778-.116,4.916-.927,5.811-1.779,6.093-.479,5.677,6.466,1.412,6.5-9.91-.664-11.046-1.356S736.548,672.812,736.548,672.812Z" transform="translate(-85.654 -20.021)" fill="#a8a8a8"/>
    <path id="Path_140" data-name="Path 140" d="M749.046,679.5c-4.265.034-9.91-.664-11.046-1.357-.865-.527-1.21-2.418-1.326-3.291l-.126,0s.239,3.047,1.376,3.739,6.781,1.391,11.046,1.356c1.231-.01,1.656-.448,1.633-1.1C750.432,679.244,749.962,679.488,749.046,679.5Z" transform="translate(-85.654 -22.063)" opacity="0.2"/>
    <ellipse id="Ellipse_18" data-name="Ellipse 18" cx="65.919" cy="10.487" rx="65.919" ry="10.487" transform="translate(501.304 671.583)" opacity="0.1"/>
    <rect id="Rectangle_34" data-name="Rectangle 34" width="6.492" height="14.981" transform="translate(589.695 658.599)" fill="#ffb9b9"/>
    <rect id="Rectangle_35" data-name="Rectangle 35" width="24.969" height="44.944" transform="translate(571.717 456.349)" fill="#ff6584"/>
    <path id="Path_141" data-name="Path 141" d="M519.885,399.312l.864,6.914-22.757,6.913-2.881-12.675Z" transform="translate(95.139 142.098)" fill="#ffb9b9"/>
    <path id="Path_142" data-name="Path 142" d="M589.143,316.46s-.576,5.185-1.728,5.185-5.185,2.016-5.185,2.016l-1.152,5.473,8.066,4.9,13.251-1.44,3.745-5.761-3.745-3.745s-3.169-6.914-2.016-8.354S589.143,316.46,589.143,316.46Z" transform="translate(-7.823 158.406)" fill="#ffb9b9"/>
    <path id="Path_143" data-name="Path 143" d="M589.143,316.46s-.576,5.185-1.728,5.185-5.185,2.016-5.185,2.016l-1.152,5.473,8.066,4.9,13.251-1.44,3.745-5.761-3.745-3.745s-3.169-6.914-2.016-8.354S589.143,316.46,589.143,316.46Z" transform="translate(-7.823 158.406)" opacity="0.1"/>
    <path id="Path_144" data-name="Path 144" d="M518.912,677.948s-2.593,17.284-5.761,18.437,12.1,3.169,12.1,3.169l1.152-6.338s.288-11.523,1.44-13.251S518.912,677.948,518.912,677.948Z" transform="translate(26.399 -23.615)" fill="#ffb9b9"/>
    <path id="Path_145" data-name="Path 145" d="M552.852,467.561s41.77-7.49,42.058-8.93,8.642,10.947,3.457,35.145-18.148,81.236-18.148,81.236-13.251,4.033-12.963.864,4.609-58.19,4.609-58.19l-2.881-23.334-4.9,2.881-20.453,40.33-10.371,34.857s-13.251,2.3-11.235-2.593S530.67,526.9,530.67,526.9l18.148-53.581S548.243,467.561,552.852,467.561Z" transform="translate(21.842 86.236)" fill="#2f2e41"/>
    <circle id="Ellipse_19" data-name="Ellipse 19" cx="12.099" cy="12.099" r="12.099" transform="translate(573.11 454.556)" fill="#ffb9b9"/>
    <path id="Path_146" data-name="Path 146" d="M605.569,332.413s-5.761,5.473-19.3,4.033,3.745,30.824,3.745,30.824l5.473,32.552s24.2-2.881,25.062-8.354S605.569,332.413,605.569,332.413Z" transform="translate(-7.829 149.366)" fill="#f2f2f2"/>
    <path id="Path_147" data-name="Path 147" d="M585.356,357.265s-6.914-3.457-9.506-12.963-4.9-19.3-6.338-19.013c-1.216.243-12.5,4.594-16.151,7.5-.674.536-1.089,1.024-1.134,1.427-.288,2.593,10.371,28.519,10.371,28.519s8.354,18.725,4.9,24.774-3.745,13.827,2.593,13.251,27.367-1.728,24.486-17.86c0,0,5.473,11.235,20.741,3.169,0,0,9.218-1.44,8.93-4.609s-14.692-30.536-14.692-30.536-2.3-12.1,2.017-16.708L601.777,322.7s-2.3-3.457-4.609-1.728a59.478,59.478,0,0,1-8.354,4.9c-.864.288-1.432-1.035-1.432-1.035a25.047,25.047,0,0,0-2.312,13.422C585.933,345.742,585.356,357.265,585.356,357.265Z" transform="translate(6.622 155.338)" fill="#2f2e41"/>
    <path id="Path_148" data-name="Path 148" d="M501.48,701.592s-.643-2.016-4.355,0c0,0,1.186-6.338-2.847-6.338s-5.473,7.49-5.473,7.49-1.152,4.9-8.93,6.914-1.728,8.93,3.745,8.93,12.675-4.321,12.675-4.321,14.98.288,15.268-2.593-1.44-11.523-2.593-11.523-3.457,4.033-3.457,4.033Z" transform="translate(44.695 -32.278)" fill="#2f2e41"/>
    <path id="Path_149" data-name="Path 149" d="M615.437,696.5s-4.033-4.321-6.338,2.881-4.033,10.082-2.593,11.235,2.593.576,2.017,2.881,1.728,7.2,6.914,7.2,6.626-3.745,6.338-6.338-2.593-5.761-2.593-5.761l-2.3-8.066Z" transform="translate(-20.29 -32.261)" fill="#2f2e41"/>
    <path id="Path_150" data-name="Path 150" d="M645.851,292.033l-15.268,5.185s-13.827,8.066-7.778,9.794,11.235-5.185,11.235-5.185l13.251-3.457Z" transform="translate(-27.947 169.581)" fill="#ffb9b9"/>
    <path id="Path_151" data-name="Path 151" d="M577.742,262.007a22.339,22.339,0,0,0-4.628,4.659c-2.788,3.487-5.519,7.652-4.832,12.064.261,1.676,1.005,3.235,1.425,4.878a25.7,25.7,0,0,1,.488,6.826,9.214,9.214,0,0,1-.357,2.878,18.976,18.976,0,0,1-1.419,2.624c-1.387,2.584-1.421,5.655-1.423,8.588a7.323,7.323,0,0,0,.395,2.912,11.586,11.586,0,0,0,1.669,2.334,10.07,10.07,0,0,1,1.552,9.123,3.952,3.952,0,0,0,3.591-2.264,5.006,5.006,0,0,1-1.28,4.071c3.3-.98,6.833-2.632,8.036-5.855a12.406,12.406,0,0,0,.592-3.384c.64-8.084,1.006-16.47-1.893-24.043-.928-2.423-2.19-4.768-2.5-7.344s.64-5.552,3.006-6.616a2.728,2.728,0,0,0,.824,1.736c.527.391,1.5.146,1.51-.51l1.143,1.591a2.792,2.792,0,0,0,1.085-.947l.784.959,1.667-1.212,1.447,1.561a3.079,3.079,0,0,0,1.271-1.383c.311.465.7.976,1.253,1.027,1.214.11,1.464-1.816,2.524-2.417a1.789,1.789,0,0,1,2.233.677,3.645,3.645,0,0,1,.45,2.468c-.439,3.961-3.819,7.576-2.816,11.433.563,2.169,2.461,3.908,2.6,6.145.114,1.787-.936,3.478-.92,5.269.019,2.1,1.469,3.881,2.884,5.431q3.779,4.137,7.956,7.886l-.86-1.5a2.793,2.793,0,0,1,2.19.806,3.787,3.787,0,0,0-.549-2.578c-2.316-4.863-4.186-10.042-4.465-15.421-.388-7.477,2.3-15.071.6-22.362a19.3,19.3,0,0,0-6.506-10.4,7.76,7.76,0,0,0-4.812-2.217,36.319,36.319,0,0,0-6.854.054,15.69,15.69,0,0,0-7.058,2.46Z" transform="translate(-0.765 185.939)" fill="#ff6584"/>
    <path id="Path_152" data-name="Path 152" d="M646.838,301.616a23.294,23.294,0,0,0,4.609,0,11.993,11.993,0,0,0,3.457-1.728l10.947-8.066-9.506,1.44s1.728-13.251,1.152-13.539,27.943-5.761,27.367,3.169-16.708,26.5-25.926,29.959l-6.049.864Z" transform="translate(-40.744 176.706)" fill="#2f2e41"/>
    <rect id="Rectangle_36" data-name="Rectangle 36" width="135.832" height="31.961" transform="translate(501.304 580.451)" fill="#fff"/>
    <rect id="Rectangle_37" data-name="Rectangle 37" width="100.875" height="16.979" transform="translate(518.533 587.692)" fill="#3f3d56"/>
    <path id="Path_153" data-name="Path 153" d="M504.983,554.619c-.04-.435-1.966-.629-4.608-.52,1.531-2.156,2.418-3.876,2.075-4.148-.324-.256-1.648.85-3.261,2.645-.152-2.408-.506-4.1-.919-4.1-.45,0-.83,2.009-.955,4.77-2.244-1.614-4.056-2.561-4.335-2.208-.266.337.946,1.761,2.874,3.464-2.544.378-4.337.91-4.3,1.338s1.966.629,4.608.52c-1.531,2.156-2.418,3.876-2.075,4.147.324.256,1.648-.85,3.261-2.645.152,2.408.506,4.1.919,4.1.45,0,.83-2.009.955-4.77,2.244,1.614,4.056,2.561,4.335,2.208.266-.337-.946-1.761-2.874-3.464C503.23,555.58,505.022,555.047,504.983,554.619Z" transform="translate(36.993 41.189)" fill="#fff"/>
    <path id="Path_154" data-name="Path 154" d="M538.983,554.619c-.04-.435-1.966-.629-4.608-.52,1.531-2.156,2.418-3.876,2.075-4.148-.324-.256-1.648.85-3.261,2.645-.152-2.408-.506-4.1-.919-4.1-.45,0-.83,2.009-.955,4.77-2.244-1.614-4.056-2.561-4.335-2.208-.266.337.947,1.761,2.874,3.464-2.544.378-4.337.91-4.3,1.338s1.966.629,4.608.52c-1.531,2.156-2.418,3.876-2.075,4.147.324.256,1.648-.85,3.261-2.645.152,2.408.506,4.1.919,4.1.45,0,.83-2.009.955-4.77,2.244,1.614,4.056,2.561,4.335,2.208.266-.337-.946-1.761-2.874-3.464C537.23,555.58,539.022,555.047,538.983,554.619Z" transform="translate(19.972 41.189)" fill="#fff"/>
    <path id="Path_155" data-name="Path 155" d="M572.983,554.619c-.04-.435-1.966-.629-4.608-.52,1.531-2.156,2.418-3.876,2.075-4.148-.324-.256-1.648.85-3.261,2.645-.152-2.408-.506-4.1-.919-4.1-.45,0-.83,2.009-.955,4.77-2.244-1.614-4.056-2.561-4.335-2.208-.266.337.946,1.761,2.874,3.464-2.544.378-4.337.91-4.3,1.338s1.966.629,4.608.52c-1.531,2.156-2.418,3.876-2.075,4.147.324.256,1.648-.85,3.261-2.645.152,2.408.506,4.1.919,4.1.45,0,.83-2.009.955-4.77,2.244,1.614,4.056,2.561,4.335,2.208.266-.337-.946-1.761-2.874-3.464C571.23,555.58,573.022,555.047,572.983,554.619Z" transform="translate(2.951 41.189)" fill="#fff"/>
    <path id="Path_156" data-name="Path 156" d="M606.983,554.619c-.04-.435-1.966-.629-4.608-.52,1.531-2.156,2.418-3.876,2.075-4.148-.324-.256-1.648.85-3.261,2.645-.152-2.408-.506-4.1-.919-4.1-.45,0-.83,2.009-.955,4.77-2.244-1.614-4.056-2.561-4.335-2.208-.266.337.947,1.761,2.874,3.464-2.544.378-4.337.91-4.3,1.338s1.966.629,4.608.52c-1.531,2.156-2.418,3.876-2.075,4.147.324.256,1.648-.85,3.261-2.645.152,2.408.506,4.1.919,4.1.45,0,.83-2.009.955-4.77,2.244,1.614,4.056,2.561,4.335,2.208.266-.337-.946-1.761-2.874-3.464C605.23,555.58,607.022,555.047,606.983,554.619Z" transform="translate(-14.07 41.189)" fill="#fff"/>
    <path id="Path_157" data-name="Path 157" d="M640.983,554.619c-.04-.435-1.966-.629-4.608-.52,1.531-2.156,2.418-3.876,2.075-4.148-.324-.256-1.648.85-3.261,2.645-.152-2.408-.506-4.1-.919-4.1-.45,0-.83,2.009-.955,4.77-2.244-1.614-4.056-2.561-4.335-2.208-.266.337.946,1.761,2.874,3.464-2.544.378-4.337.91-4.3,1.338s1.966.629,4.608.52c-1.531,2.156-2.418,3.876-2.075,4.147.324.256,1.648-.85,3.261-2.645.152,2.408.506,4.1.919,4.1.45,0,.83-2.009.955-4.77,2.244,1.614,4.056,2.561,4.335,2.208.266-.337-.946-1.761-2.874-3.464C639.23,555.58,641.022,555.047,640.983,554.619Z" transform="translate(-31.091 41.189)" fill="#fff"/>
    <path id="Path_158" data-name="Path 158" d="M548.648,500.852s-1.44,19.013,5.473,19.877.576-21.605.576-21.605Z" transform="translate(8.474 65.908)" fill="#ffb9b9"/>
    <path id="Path_159" data-name="Path 159" d="M549.5,346.835l-2.017.576s-8.354,66.832-2.881,79.8c0,0,5.761-3.169,8.642-2.593l4.609-54.445Z" transform="translate(11.368 142.146)" fill="#2f2e41"/>
  </g>
</svg>
